<svg preserveAspectRatio="xMidYMid meet" width="100%" height="100%" overflow="visible" style="display: block;" viewBox="0 0 100 21.7391" fill="none" xmlns="http://www.w3.org/2000/svg">
<g id="Infoblox_2_Color_Logo_Black" clip-path="url(#clip0_0_620)">
<path id="Path 2083" d="M6.54897 3.22176L3.98919 5.78045C3.91664 5.85162 3.81907 5.89148 3.71745 5.89148C3.61582 5.89148 3.51825 5.85162 3.44571 5.78045L0.885926 3.22176C0.814761 3.14921 0.774894 3.05164 0.774894 2.95002C0.774894 2.84839 0.814761 2.75082 0.885926 2.67828L3.44136 0.108712C3.51391 0.0375469 3.61148 -0.00231934 3.7131 -0.00231934C3.81472 -0.00231934 3.91229 0.0375469 3.98484 0.108712L6.54897 2.67284C6.58502 2.70888 6.61362 2.75166 6.63314 2.79876C6.65265 2.84585 6.66269 2.89632 6.66269 2.9473C6.66269 2.99827 6.65265 3.04875 6.63314 3.09584C6.61362 3.14293 6.58502 3.18572 6.54897 3.22176Z" fill="var(--fill-0, #00BD4D)"/>
<path id="Path 2084" d="M91.7889 14.1522L96.3369 20.9C96.373 20.9542 96.3932 21.0174 96.3954 21.0824C96.3976 21.1475 96.3816 21.2119 96.3492 21.2683C96.3168 21.3248 96.2692 21.3711 96.212 21.402C96.1547 21.433 96.0899 21.4473 96.0249 21.4435H92.2031C92.0772 21.4435 91.9532 21.4128 91.8418 21.354C91.7304 21.2953 91.635 21.2104 91.5639 21.1065L88.9355 17.0848L86.3115 21.1076C86.2404 21.2115 86.145 21.2964 86.0336 21.3551C85.9223 21.4138 85.7983 21.4445 85.6724 21.4446H81.8516C81.7866 21.4484 81.7218 21.4341 81.6646 21.4031C81.6073 21.3722 81.5598 21.3259 81.5274 21.2694C81.4949 21.213 81.4789 21.1486 81.4811 21.0835C81.4833 21.0184 81.5035 20.9553 81.5396 20.9011L86.0724 14.1533L81.5396 7.40544C81.5035 7.35127 81.4833 7.2881 81.4811 7.22303C81.4789 7.15796 81.4949 7.09358 81.5274 7.03712C81.5598 6.98065 81.6073 6.93435 81.6646 6.90341C81.7218 6.87247 81.7866 6.85811 81.8516 6.86196H85.8355C85.9064 6.8607 85.9767 6.87654 86.0402 6.90813C86.1038 6.93972 86.1588 6.98615 86.2007 7.04349L88.9399 11.2152L91.5106 7.04457C91.5524 6.98682 91.6075 6.94004 91.6713 6.90823C91.7351 6.87643 91.8057 6.86056 91.8769 6.86196H95.8988C95.9639 6.8579 96.0288 6.87209 96.0863 6.90294C96.1437 6.9338 96.1914 6.98009 96.2239 7.03659C96.2565 7.09309 96.2726 7.15757 96.2705 7.22274C96.2683 7.28791 96.248 7.35119 96.2119 7.40544L91.7889 14.1522Z" fill="var(--fill-0, black)"/>
<path id="Path 2085" d="M29.7422 0.625029H26.5737C26.4203 0.62523 26.2686 0.655999 26.1273 0.715535C25.986 0.775072 25.858 0.862181 25.7508 0.971768L22.7746 3.99894C22.5564 4.22243 22.4343 4.52244 22.4344 4.83481V7.21851H20.6572C20.5553 7.21937 20.4579 7.26059 20.3864 7.33313C20.3149 7.40566 20.2751 7.5036 20.2756 7.60547V10.2805C20.2751 10.3823 20.3149 10.4803 20.3864 10.5528C20.4579 10.6253 20.5553 10.6666 20.6572 10.6674H22.4344V21.05C22.434 21.1014 22.4437 21.1524 22.4629 21.2C22.4822 21.2477 22.5107 21.291 22.5467 21.3277C22.5827 21.3643 22.6256 21.3935 22.673 21.4136C22.7203 21.4336 22.7711 21.4442 22.8225 21.4446H26.166C26.2174 21.4442 26.2682 21.4336 26.3155 21.4136C26.3629 21.3935 26.4058 21.3643 26.4418 21.3277C26.4778 21.291 26.5063 21.2477 26.5256 21.2C26.5448 21.1524 26.5545 21.1014 26.5541 21.05V10.6718H29.2096C29.3115 10.6709 29.4088 10.6297 29.4804 10.5572C29.5519 10.4846 29.5917 10.3867 29.5912 10.2848V7.60547C29.5917 7.5036 29.5519 7.40566 29.4804 7.33313C29.4088 7.26059 29.3115 7.21937 29.2096 7.21851H26.5541V5.52829C26.5528 5.37427 26.5819 5.22151 26.6396 5.07872C26.6974 4.93593 26.7827 4.80592 26.8907 4.6961C26.9987 4.58628 27.1273 4.49882 27.2691 4.43869C27.4109 4.37857 27.5631 4.34696 27.7172 4.34568H29.7422C29.7936 4.34526 29.8444 4.33471 29.8917 4.31465C29.9391 4.29459 29.982 4.26541 30.018 4.22877C30.054 4.19213 30.0825 4.14875 30.1018 4.10111C30.121 4.05347 30.1307 4.0025 30.1303 3.95112V1.01959C30.1307 0.968207 30.121 0.917238 30.1018 0.869598C30.0825 0.821959 30.054 0.778581 30.018 0.741941C29.982 0.705302 29.9391 0.67612 29.8917 0.65606C29.8444 0.636 29.7936 0.625456 29.7422 0.625029Z" fill="var(--fill-0, black)"/>
<g id="Group 2498">
<path id="Path 2086" d="M99.9977 20.0642C99.9983 20.3816 99.9048 20.6921 99.7289 20.9564C99.553 21.2206 99.3027 21.4268 99.0096 21.5487C98.7165 21.6706 98.3938 21.7029 98.0824 21.6413C97.7709 21.5798 97.4848 21.4273 97.2601 21.203C97.0354 20.9788 96.8822 20.6929 96.8201 20.3816C96.7579 20.0703 96.7895 19.7476 96.9108 19.4542C97.0322 19.1609 97.2378 18.9101 97.5017 18.7337C97.7656 18.5572 98.0759 18.4631 98.3934 18.4631C98.6039 18.4626 98.8124 18.5037 99.0071 18.584C99.2017 18.6643 99.3786 18.7821 99.5276 18.9309C99.6766 19.0796 99.7949 19.2562 99.8755 19.4507C99.9562 19.6452 99.9977 19.8536 99.9977 20.0642ZM99.751 20.0707C99.7477 19.8032 99.6655 19.5426 99.5147 19.3216C99.3639 19.1006 99.1512 18.9292 98.9032 18.8287C98.6553 18.7283 98.3831 18.7033 98.1211 18.757C97.859 18.8107 97.6186 18.9406 97.4301 19.1305C97.2416 19.3203 97.1134 19.5616 97.0616 19.8241C97.0098 20.0866 97.0366 20.3585 97.1388 20.6057C97.2411 20.853 97.4141 21.0645 97.6361 21.2137C97.8581 21.363 98.1193 21.4433 98.3868 21.4446C98.5671 21.445 98.7456 21.4097 98.9121 21.3408C99.0786 21.2718 99.2299 21.1705 99.357 21.0428C99.4842 20.915 99.5847 20.7633 99.6529 20.5965C99.7211 20.4296 99.7555 20.2509 99.7542 20.0707H99.751ZM98.7379 20.3239L99.1401 20.9511H98.8738L98.426 20.2402H98.0173V20.9511H97.7934V19.1522H98.4912C98.5647 19.1426 98.6395 19.1494 98.7102 19.1721C98.7808 19.1947 98.8456 19.2327 98.8998 19.2832C98.9541 19.3338 98.9966 19.3957 99.0242 19.4645C99.0519 19.5334 99.064 19.6075 99.0597 19.6815C99.0631 19.8023 99.024 19.9204 98.9493 20.0153C98.8747 20.1102 98.7691 20.176 98.651 20.2011C98.6854 20.2385 98.7153 20.2797 98.7401 20.3239H98.7379ZM98.4118 20.0283C98.6651 20.0283 98.8216 19.9076 98.8216 19.7022C98.827 19.6577 98.8224 19.6125 98.808 19.5701C98.7937 19.5276 98.77 19.4889 98.7387 19.4568C98.7074 19.4246 98.6693 19.4 98.6272 19.3845C98.5852 19.369 98.5402 19.3632 98.4956 19.3674H98.0151V20.0337L98.4118 20.0283Z" fill="var(--fill-0, black)"/>
</g>
<path id="Path 2087" d="M66.0271 21.4446H62.6836C62.6323 21.4442 62.5815 21.4336 62.5341 21.4136C62.4868 21.3935 62.4439 21.3643 62.4079 21.3277C62.3719 21.291 62.3434 21.2477 62.3241 21.2C62.3049 21.1524 62.2952 21.1014 62.2956 21.05V1.01959C62.2952 0.968207 62.3049 0.917238 62.3241 0.869598C62.3434 0.821959 62.3719 0.778581 62.4079 0.741941C62.4439 0.705302 62.4868 0.67612 62.5341 0.65606C62.5815 0.636 62.6323 0.625456 62.6836 0.625029H66.0271C66.0785 0.625456 66.1293 0.636 66.1766 0.65606C66.2239 0.67612 66.2668 0.705302 66.3029 0.741941C66.3389 0.778581 66.3674 0.821959 66.3866 0.869598C66.4059 0.917238 66.4156 0.968207 66.4151 1.01959V21.05C66.4156 21.1014 66.4059 21.1524 66.3866 21.2C66.3674 21.2477 66.3389 21.291 66.3029 21.3277C66.2668 21.3643 66.2239 21.3935 66.1766 21.4136C66.1293 21.4336 66.0785 21.4442 66.0271 21.4446Z" fill="var(--fill-0, black)"/>
<path id="Path 2088" d="M54.3257 6.3022C53.4564 6.28232 52.5953 6.47312 51.8158 6.8583C51.0363 7.24349 50.3616 7.81162 49.8494 8.51416V1.01959C49.8498 0.968207 49.8402 0.917238 49.8209 0.869598C49.8016 0.821959 49.7732 0.778581 49.7371 0.741941C49.7011 0.705302 49.6582 0.67612 49.6109 0.65606C49.5636 0.636 49.5128 0.625456 49.4614 0.625029H46.1178C46.0664 0.625456 46.0156 0.636 45.9683 0.65606C45.921 0.67612 45.8781 0.705302 45.842 0.741941C45.806 0.778581 45.7775 0.821959 45.7583 0.869598C45.739 0.917238 45.7293 0.968207 45.7297 1.01959V21.0457C45.7293 21.0971 45.739 21.148 45.7583 21.1957C45.7775 21.2433 45.806 21.2867 45.842 21.3233C45.8781 21.36 45.921 21.3892 45.9683 21.4092C46.0156 21.4293 46.0664 21.4398 46.1178 21.4402H49.4614C49.5128 21.4398 49.5636 21.4293 49.6109 21.4092C49.6582 21.3892 49.7011 21.36 49.7371 21.3233C49.7732 21.2867 49.8016 21.2433 49.8209 21.1957C49.8402 21.148 49.8498 21.0971 49.8494 21.0457V19.5696C50.3677 20.2703 51.0487 20.8344 51.8337 21.2131C52.6186 21.5919 53.484 21.7739 54.355 21.7435C58.4225 21.7435 61.19 18.4087 61.19 14.0457C61.19 9.68264 58.4225 6.3022 54.3257 6.3022ZM53.5061 17.8066C52.5271 17.783 51.5962 17.3775 50.9121 16.6769C50.2281 15.9762 49.8451 15.0358 49.8451 14.0566C49.8451 13.0773 50.2281 12.1369 50.9121 11.4363C51.5962 10.7356 52.5271 10.3301 53.5061 10.3066C53.989 10.3107 54.4663 10.4111 54.91 10.602C55.3537 10.7928 55.7549 11.0703 56.09 11.4181C56.4251 11.7659 56.6876 12.177 56.8619 12.6274C57.0361 13.0779 57.1189 13.5586 57.1051 14.0413C57.1196 14.5257 57.0376 15.0081 56.864 15.4605C56.6904 15.9129 56.4286 16.3263 56.0938 16.6766C55.759 17.0269 55.358 17.3072 54.9139 17.5012C54.4698 17.6952 53.9917 17.799 53.5072 17.8066H53.5061Z" fill="var(--fill-0, black)"/>
<path id="Path 2089" d="M37.1197 6.55326C35.6145 6.54034 34.1393 6.97506 32.8817 7.80222C31.624 8.62938 30.6405 9.81165 30.0562 11.1989C29.4719 12.5861 29.3131 14.1157 29.5999 15.5934C29.8867 17.0711 30.6063 18.4302 31.6672 19.4981C32.7281 20.566 34.0824 21.2945 35.5582 21.5911C37.034 21.8877 38.5647 21.739 39.9558 21.1639C41.3469 20.5888 42.5357 19.6132 43.3712 18.3611C44.2067 17.109 44.6512 15.6368 44.6482 14.1315C44.666 13.1357 44.4838 12.1463 44.1124 11.2221C43.741 10.2979 43.1879 9.45765 42.4859 8.75102C41.784 8.0444 40.9473 7.4858 40.0256 7.10829C39.1038 6.73079 38.1157 6.54205 37.1197 6.55326ZM37.1349 17.8293C36.1579 17.8293 35.2209 17.4412 34.5301 16.7504C33.8392 16.0596 33.4511 15.1226 33.4511 14.1457C33.4511 13.1687 33.8392 12.2317 34.5301 11.5409C35.2209 10.8501 36.1579 10.462 37.1349 10.462C38.0964 10.4853 39.0107 10.8837 39.6825 11.572C40.3543 12.2602 40.7303 13.1839 40.7303 14.1457C40.7303 15.1074 40.3543 16.0311 39.6825 16.7194C39.0107 17.4076 38.0964 17.806 37.1349 17.8293Z" fill="var(--fill-0, black)"/>
<path id="Path 2090" d="M75.0265 6.55326C73.5212 6.54034 72.0461 6.97506 70.7884 7.80222C69.5307 8.62938 68.5473 9.81165 67.963 11.1989C67.3787 12.5861 67.2198 14.1157 67.5067 15.5934C67.7935 17.0711 68.513 18.4302 69.5739 19.4981C70.6348 20.566 71.9892 21.2945 73.465 21.5911C74.9408 21.8877 76.4714 21.739 77.8625 21.1639C79.2537 20.5888 80.4424 19.6132 81.2779 18.3611C82.1134 17.109 82.5579 15.6368 82.555 14.1315C82.5728 13.1357 82.3906 12.1463 82.0192 11.2221C81.6478 10.2979 81.0947 9.45765 80.3927 8.75102C79.6907 8.0444 78.8541 7.4858 77.9323 7.10829C77.0106 6.73079 76.0225 6.54205 75.0265 6.55326ZM75.0417 17.8293C74.0647 17.8293 73.1277 17.4412 72.4368 16.7504C71.746 16.0596 71.3579 15.1226 71.3579 14.1457C71.3579 13.1687 71.746 12.2317 72.4368 11.5409C73.1277 10.8501 74.0647 10.462 75.0417 10.462C76.0032 10.4853 76.9175 10.8837 77.5893 11.572C78.2611 12.2602 78.6371 13.1839 78.6371 14.1457C78.6371 15.1074 78.2611 16.0311 77.5893 16.7194C76.9175 17.4076 76.0032 17.806 75.0417 17.8293Z" fill="var(--fill-0, black)"/>
<path id="Path 2091" d="M3.73154 21.4445H0.388057C0.285141 21.4445 0.186441 21.4037 0.113669 21.3309C0.0408963 21.2581 1.32685e-05 21.1594 1.32685e-05 21.0565L1.32685e-05 10.6728C5.09109e-05 10.5695 0.0207446 10.4672 0.0608777 10.372C0.101011 10.2768 0.159773 10.1906 0.233709 10.1185L3.46088 6.96628C3.51551 6.91311 3.58458 6.87721 3.65948 6.86306C3.73437 6.8489 3.81178 6.85712 3.88204 6.88668C3.9523 6.91625 4.01229 6.96585 4.05454 7.0293C4.09678 7.09275 4.1194 7.16723 4.11958 7.24345V21.0565C4.11958 21.1594 4.0787 21.2581 4.00592 21.3309C3.93315 21.4037 3.83445 21.4445 3.73154 21.4445Z" fill="var(--fill-0, black)"/>
<path id="Path 2092" d="M19.7256 11.7869C19.7077 10.396 19.144 9.06774 18.1561 8.08838C17.1682 7.10902 15.8351 6.55694 14.444 6.55107C13.6375 6.52457 12.8384 6.71292 12.1286 7.09682C11.4189 7.48072 10.8239 8.04638 10.4047 8.73585V7.24889C10.4047 7.14598 10.3638 7.04728 10.291 6.97451C10.2183 6.90173 10.1196 6.86085 10.0166 6.86085H6.67305C6.57013 6.86085 6.47143 6.90173 6.39865 6.97451C6.32588 7.04728 6.28499 7.14598 6.28499 7.24889V21.0532C6.28485 21.1043 6.29478 21.1549 6.31422 21.2021C6.33366 21.2493 6.36222 21.2922 6.39827 21.3283C6.43432 21.3645 6.47714 21.3932 6.5243 21.4127C6.57145 21.4323 6.622 21.4424 6.67305 21.4424H10.021C10.1239 21.4424 10.2226 21.4015 10.2954 21.3287C10.3682 21.2559 10.409 21.1572 10.409 21.0543V13.0261C10.4017 12.6868 10.4647 12.3497 10.5941 12.036C10.7235 11.7223 10.9164 11.4387 11.1608 11.2033C11.4051 10.9678 11.6956 10.7855 12.0139 10.6678C12.3322 10.5501 12.6714 10.4997 13.0102 10.5195C13.3637 10.5018 13.7169 10.5598 14.0462 10.6896C14.3755 10.8194 14.6732 11.018 14.9195 11.2722C15.1658 11.5264 15.3549 11.8303 15.4742 12.1635C15.5936 12.4967 15.6403 12.8516 15.6114 13.2043V21.0576C15.6122 21.1599 15.6535 21.2578 15.7262 21.3299C15.7989 21.4019 15.8971 21.4424 15.9994 21.4424H19.343C19.4459 21.4424 19.5447 21.4015 19.6174 21.3287C19.6902 21.2559 19.7311 21.1572 19.7311 21.0543L19.7256 11.7869Z" fill="var(--fill-0, black)"/>
</g>
<defs>
<clipPath id="clip0_0_620">
<rect width="100" height="21.7391" fill="white"/>
</clipPath>
</defs>
</svg>
